# xmcd CD database file
#
# Track frame offsets:
#	150
#	22205
#	45050
#	69847
#	91270
#	117230
#	138642
#	162022
#	187335
#	206617
#	228155
#	255190
#
# Disc length: 3694 seconds
#
# Revision: 0
# Processed by: cddbd v1.5PL3 Copyright (c) Steve Scherf et al.
# Submitted via: CDex 1.51
#
DISCID=970e6c0c
DTITLE=手使海ユトロ - 大陸幻想
DYEAR=2003
DGENRE=Ambient
TTITLE0=Spice Market/胡椒市場
TTITLE1=Ayeyarwady/エイヤーワディー
TTITLE2=Hong Kong Reflection/香港・光と影
TTITLE3=Pao with a Starry Night/星空の下のパオ
TTITLE4=Town of Minaret/ミナレット
TTITLE5=Caravan/キャラバン
TTITLE6=Raffles Hotel/ラッフルズ・ホテル
TTITLE7=The Indus Flows/インダスは流れる
TTITLE8=Asian Kids/アジアの妖精
TTITLE9=Girls in Ao dai/アオザイと白い風
TTITLE10=Moon over the Great Wall/月下長城
TTITLE11=Come Across the Wind/風たちとの出逢い
EXTD=YEAR: 2003
EXTT0=
EXTT1=
EXTT2=
EXTT3=
EXTT4=
EXTT5=
EXTT6=
EXTT7=
EXTT8=
EXTT9=
EXTT10=
EXTT11=
PLAYORDER=
